# xmcd CD Database Entry
#
# Track frame offsets:
# 183
# 17888
# 35573
# 60460
# 77375
# 101530
# 124630
#
# Disc length: 2038 seconds
#
# Revision: 5
# Processed by: cddbd v1.4PL0 Copyright (c) Steve Scherf et al.
# Submitted via: tcd 2.0b
#
DISCID=4b07f407
DTITLE=Hubert Félix Thiéfaine - Alambic/Sortie-Sud
DYEAR=1900
DGENRE=
TTITLE0=Stalag-tilt
TTITLE1=Whiskeuses images again
TTITLE2=Nyctalopus airline
TTITLE3=Femme de Loth
TTITLE4=Buenas noches, jo
TTITLE5=Un vendredi 13 à 5h
TTITLE6=Chambre 2023 (& des poussières)
EXTD=
EXTT0=
EXTT1=
EXTT2=
EXTT3=
EXTT4=
EXTT5=
EXTT6=
PLAYORDER=
